<svg viewBox="0 0 960 360" role="img" aria-labelledby="fig01" xmlns="http://www.w3.org/2000/svg"><title id="fig01">現況掃描圖解：左側為現場點雲網格，經 AI 識圖丈量與 CAD 轉 BIM，轉為右側帶尺寸的現況平面與模型基準</title><defs><pattern id="h60" patternUnits="userSpaceOnUse" width="8" height="13.9"><line class="ln ln2" x1="0" y1="13.9" x2="8" y2="0"/></pattern></defs><rect class="fi" x="59" y="59" width="2" height="2"/><rect class="fi" x="59" y="67" width="2" height="2"/><rect class="fi" x="59" y="75" width="2" height="2"/><rect class="fi" x="59" y="83" width="2" height="2"/><rect class="fi" x="59" y="91" width="2" height="2"/><rect class="fi" x="59" y="99" width="2" height="2"/><rect class="fi" x="59" y="107" width="2" height="2"/><rect class="fi" x="59" y="115" width="2" height="2"/><rect class="fi" x="59" y="123" width="2" height="2"/><rect class="fi" x="59" y="131" width="2" height="2"/><rect class="fi" x="59" y="139" width="2" height="2"/><rect class="fi" x="59" y="147" width="2" height="2"/><rect class="fi" x="59" y="155" width="2" height="2"/><rect class="fi" x="59" y="163" width="2" height="2"/><rect class="fi" x="59" y="171" width="2" height="2"/><rect class="fi" x="59" y="179" width="2" height="2"/><rect class="fi" x="59" y="187" width="2" height="2"/><rect class="fi" x="59" y="195" width="2" height="2"/><rect class="fi" x="59" y="203" width="2" height="2"/><rect class="fi" x="59" y="211" width="2" height="2"/><rect class="fi" x="59" y="219" width="2" height="2"/><rect class="fi" x="59" y="227" width="2" height="2"/><rect class="fi" x="59" y="235" width="2" height="2"/><rect class="fi" x="59" y="243" width="2" height="2"/><rect class="fi" x="59" y="251" width="2" height="2"/><rect class="fi" x="59" y="259" width="2" height="2"/><rect class="fi" x="59" y="267" width="2" height="2"/><rect class="fi" x="59" y="275" width="2" height="2"/><rect class="fi" x="59" y="283" width="2" height="2"/><rect class="fi" x="59" y="291" width="2" height="2"/><rect class="fi" x="59" y="299" width="2" height="2"/><rect class="fi" x="67" y="59" width="2" height="2"/><rect class="fi" x="67" y="67" width="2" height="2"/><rect class="fi" x="67" y="75" width="2" height="2"/><rect class="fi" x="67" y="83" width="2" height="2"/><rect class="fi" x="67" y="91" width="2" height="2"/><rect class="fi" x="67" y="99" width="2" height="2"/><rect class="fi" x="67" y="107" width="2" height="2"/><rect class="fi" x="67" y="115" width="2" height="2"/><rect class="fi" x="67" y="123" width="2" height="2"/><rect class="fi" x="67" y="131" width="2" height="2"/><rect class="fi" x="67" y="139" width="2" height="2"/><rect class="fi" x="67" y="147" width="2" height="2"/><rect class="fi" x="67" y="155" width="2" height="2"/><rect class="fi" x="67" y="163" width="2" height="2"/><rect class="fi" x="67" y="171" width="2" height="2"/><rect class="fi" x="67" y="179" width="2" height="2"/><rect class="fi" x="67" y="187" width="2" height="2"/><rect class="fi" x="67" y="195" width="2" height="2"/><rect class="fi" x="67" y="203" width="2" height="2"/><rect class="fi" x="67" y="211" width="2" height="2"/><rect class="fi" x="67" y="219" width="2" height="2"/><rect class="fi" x="67" y="227" width="2" height="2"/><rect class="fi" x="67" y="235" width="2" height="2"/><rect class="fi" x="67" y="243" width="2" height="2"/><rect class="fi" x="67" y="251" width="2" height="2"/><rect class="fi" x="67" y="259" width="2" height="2"/><rect class="fi" x="67" y="267" width="2" height="2"/><rect class="fi" x="67" y="275" width="2" height="2"/><rect class="fi" x="67" y="283" width="2" height="2"/><rect class="fi" x="67" y="291" width="2" height="2"/><rect class="fi" x="67" y="299" width="2" height="2"/><rect class="fi" x="75" y="59" width="2" height="2"/><rect class="fi" x="75" y="67" width="2" height="2"/><rect class="fi" x="75" y="291" width="2" height="2"/><rect class="fi" x="75" y="299" width="2" height="2"/><rect class="fi" x="83" y="59" width="2" height="2"/><rect class="fi" x="83" y="67" width="2" height="2"/><rect class="fi" x="83" y="291" width="2" height="2"/><rect class="fi" x="83" y="299" width="2" height="2"/><rect class="fi" x="91" y="59" width="2" height="2"/><rect class="fi" x="91" y="67" width="2" height="2"/><rect class="fi" x="91" y="291" width="2" height="2"/><rect class="fi" x="91" y="299" width="2" height="2"/><rect class="fi" x="99" y="59" width="2" height="2"/><rect class="fi" x="99" y="67" width="2" height="2"/><rect class="fi" x="99" y="291" width="2" height="2"/><rect class="fi" x="99" y="299" width="2" height="2"/><rect class="fi" x="107" y="59" width="2" height="2"/><rect class="fi" x="107" y="67" width="2" height="2"/><rect class="fi" x="107" y="291" width="2" height="2"/><rect class="fi" x="107" y="299" width="2" height="2"/><rect class="fi" x="115" y="59" width="2" height="2"/><rect class="fi" x="115" y="67" width="2" height="2"/><rect class="fi" x="115" y="291" width="2" height="2"/><rect class="fi" x="115" y="299" width="2" height="2"/><rect class="fi" x="123" y="59" width="2" height="2"/><rect class="fi" x="123" y="67" width="2" height="2"/><rect class="fi" x="123" y="291" width="2" height="2"/><rect class="fi" x="123" y="299" width="2" height="2"/><rect class="fi" x="131" y="59" width="2" height="2"/><rect class="fi" x="131" y="67" width="2" height="2"/><rect class="fi" x="131" y="291" width="2" height="2"/><rect class="fi" x="131" y="299" width="2" height="2"/><rect class="fi" x="139" y="59" width="2" height="2"/><rect class="fi" x="139" y="67" width="2" height="2"/><rect class="fi" x="139" y="291" width="2" height="2"/><rect class="fi" x="139" y="299" width="2" height="2"/><rect class="fi" x="147" y="59" width="2" height="2"/><rect class="fi" x="147" y="67" width="2" height="2"/><rect class="fi" x="147" y="291" width="2" height="2"/><rect class="fi" x="147" y="299" width="2" height="2"/><rect class="fi" x="155" y="59" width="2" height="2"/><rect class="fi" x="155" y="67" width="2" height="2"/><rect class="fi" x="155" y="291" width="2" height="2"/><rect class="fi" x="155" y="299" width="2" height="2"/><rect class="fi" x="163" y="59" width="2" height="2"/><rect class="fi" x="163" y="67" width="2" height="2"/><rect class="fi" x="163" y="291" width="2" height="2"/><rect class="fi" x="163" y="299" width="2" height="2"/><rect class="fi" x="171" y="59" width="2" height="2"/><rect class="fi" x="171" y="67" width="2" height="2"/><rect class="fi" x="171" y="291" width="2" height="2"/><rect class="fi" x="171" y="299" width="2" height="2"/><rect class="fi" x="179" y="59" width="2" height="2"/><rect class="fi" x="179" y="67" width="2" height="2"/><rect class="fi" x="179" y="291" width="2" height="2"/><rect class="fi" x="179" y="299" width="2" height="2"/><rect class="fi" x="187" y="59" width="2" height="2"/><rect class="fi" x="187" y="67" width="2" height="2"/><rect class="fi" x="187" y="291" width="2" height="2"/><rect class="fi" x="187" y="299" width="2" height="2"/><rect class="fi" x="195" y="59" width="2" height="2"/><rect class="fi" x="195" y="67" width="2" height="2"/><rect class="fi" x="195" y="291" width="2" height="2"/><rect class="fi" x="195" y="299" width="2" height="2"/><rect class="fi" x="203" y="59" width="2" height="2"/><rect class="fi" x="203" y="67" width="2" height="2"/><rect class="fi" x="203" y="291" width="2" height="2"/><rect class="fi" x="203" y="299" width="2" height="2"/><rect class="fi" x="211" y="59" width="2" height="2"/><rect class="fi" x="211" y="67" width="2" height="2"/><rect class="fi" x="211" y="291" width="2" height="2"/><rect class="fi" x="211" y="299" width="2" height="2"/><rect class="fi" x="219" y="59" width="2" height="2"/><rect class="fi" x="219" y="67" width="2" height="2"/><rect class="fi" x="219" y="291" width="2" height="2"/><rect class="fi" x="219" y="299" width="2" height="2"/><rect class="fi" x="227" y="59" width="2" height="2"/><rect class="fi" x="227" y="67" width="2" height="2"/><rect class="fi" x="227" y="291" width="2" height="2"/><rect class="fi" x="227" y="299" width="2" height="2"/><rect class="fi" x="235" y="59" width="2" height="2"/><rect class="fi" x="235" y="67" width="2" height="2"/><rect class="fi" x="235" y="75" width="2" height="2"/><rect class="fi" x="235" y="83" width="2" height="2"/><rect class="fi" x="235" y="91" width="2" height="2"/><rect class="fi" x="235" y="99" width="2" height="2"/><rect class="fi" x="235" y="107" width="2" height="2"/><rect class="fi" x="235" y="115" width="2" height="2"/><rect class="fi" x="235" y="123" width="2" height="2"/><rect class="fi" x="235" y="131" width="2" height="2"/><rect class="fi" x="235" y="139" width="2" height="2"/><rect class="fi" x="235" y="147" width="2" height="2"/><rect class="fi" x="235" y="155" width="2" height="2"/><rect class="fi" x="235" y="291" width="2" height="2"/><rect class="fi" x="235" y="299" width="2" height="2"/><rect class="fi" x="243" y="59" width="2" height="2"/><rect class="fi" x="243" y="67" width="2" height="2"/><rect class="fi" x="243" y="75" width="2" height="2"/><rect class="fi" x="243" y="83" width="2" height="2"/><rect class="fi" x="243" y="91" width="2" height="2"/><rect class="fi" x="243" y="99" width="2" height="2"/><rect class="fi" x="243" y="107" width="2" height="2"/><rect class="fi" x="243" y="115" width="2" height="2"/><rect class="fi" x="243" y="123" width="2" height="2"/><rect class="fi" x="243" y="131" width="2" height="2"/><rect class="fi" x="243" y="139" width="2" height="2"/><rect class="fi" x="243" y="147" width="2" height="2"/><rect class="fi" x="243" y="155" width="2" height="2"/><rect class="fi" x="243" y="163" width="2" height="2"/><rect class="fi" x="243" y="291" width="2" height="2"/><rect class="fi" x="243" y="299" width="2" height="2"/><rect class="fi" x="251" y="155" width="2" height="2"/><rect class="fi" x="251" y="163" width="2" height="2"/><rect class="fi" x="251" y="291" width="2" height="2"/><rect class="fi" x="251" y="299" width="2" height="2"/><rect class="fi" x="259" y="155" width="2" height="2"/><rect class="fi" x="259" y="163" width="2" height="2"/><rect class="fi" x="259" y="291" width="2" height="2"/><rect class="fi" x="259" y="299" width="2" height="2"/><rect class="fi" x="267" y="155" width="2" height="2"/><rect class="fi" x="267" y="163" width="2" height="2"/><rect class="fi" x="267" y="291" width="2" height="2"/><rect class="fi" x="267" y="299" width="2" height="2"/><rect class="fi" x="275" y="155" width="2" height="2"/><rect class="fi" x="275" y="163" width="2" height="2"/><rect class="fi" x="275" y="291" width="2" height="2"/><rect class="fi" x="275" y="299" width="2" height="2"/><rect class="fi" x="283" y="155" width="2" height="2"/><rect class="fi" x="283" y="163" width="2" height="2"/><rect class="fi" x="283" y="291" width="2" height="2"/><rect class="fi" x="283" y="299" width="2" height="2"/><rect class="fi" x="291" y="155" width="2" height="2"/><rect class="fi" x="291" y="163" width="2" height="2"/><rect class="fi" x="291" y="291" width="2" height="2"/><rect class="fi" x="291" y="299" width="2" height="2"/><rect class="fi" x="299" y="155" width="2" height="2"/><rect class="fi" x="299" y="163" width="2" height="2"/><rect class="fi" x="299" y="291" width="2" height="2"/><rect class="fi" x="299" y="299" width="2" height="2"/><rect class="fi" x="307" y="155" width="2" height="2"/><rect class="fi" x="307" y="163" width="2" height="2"/><rect class="fi" x="307" y="291" width="2" height="2"/><rect class="fi" x="307" y="299" width="2" height="2"/><rect class="fi" x="315" y="155" width="2" height="2"/><rect class="fi" x="315" y="163" width="2" height="2"/><rect class="fi" x="315" y="291" width="2" height="2"/><rect class="fi" x="315" y="299" width="2" height="2"/><rect class="fi" x="323" y="155" width="2" height="2"/><rect class="fi" x="323" y="163" width="2" height="2"/><rect class="fi" x="323" y="291" width="2" height="2"/><rect class="fi" x="323" y="299" width="2" height="2"/><rect class="fi" x="331" y="155" width="2" height="2"/><rect class="fi" x="331" y="163" width="2" height="2"/><rect class="fi" x="331" y="291" width="2" height="2"/><rect class="fi" x="331" y="299" width="2" height="2"/><rect class="fi" x="339" y="155" width="2" height="2"/><rect class="fi" x="339" y="163" width="2" height="2"/><rect class="fi" x="339" y="291" width="2" height="2"/><rect class="fi" x="339" y="299" width="2" height="2"/><rect class="fi" x="347" y="155" width="2" height="2"/><rect class="fi" x="347" y="163" width="2" height="2"/><rect class="fi" x="347" y="291" width="2" height="2"/><rect class="fi" x="347" y="299" width="2" height="2"/><rect class="fi" x="355" y="155" width="2" height="2"/><rect class="fi" x="355" y="163" width="2" height="2"/><rect class="fi" x="355" y="171" width="2" height="2"/><rect class="fi" x="355" y="179" width="2" height="2"/><rect class="fi" x="355" y="187" width="2" height="2"/><rect class="fi" x="355" y="195" width="2" height="2"/><rect class="fi" x="355" y="203" width="2" height="2"/><rect class="fi" x="355" y="211" width="2" height="2"/><rect class="fi" x="355" y="219" width="2" height="2"/><rect class="fi" x="355" y="227" width="2" height="2"/><rect class="fi" x="355" y="235" width="2" height="2"/><rect class="fi" x="355" y="243" width="2" height="2"/><rect class="fi" x="355" y="251" width="2" height="2"/><rect class="fi" x="355" y="259" width="2" height="2"/><rect class="fi" x="355" y="267" width="2" height="2"/><rect class="fi" x="355" y="275" width="2" height="2"/><rect class="fi" x="355" y="283" width="2" height="2"/><rect class="fi" x="355" y="291" width="2" height="2"/><rect class="fi" x="355" y="299" width="2" height="2"/><rect class="fi" x="363" y="163" width="2" height="2"/><rect class="fi" x="363" y="171" width="2" height="2"/><rect class="fi" x="363" y="179" width="2" height="2"/><rect class="fi" x="363" y="187" width="2" height="2"/><rect class="fi" x="363" y="195" width="2" height="2"/><rect class="fi" x="363" y="203" width="2" height="2"/><rect class="fi" x="363" y="211" width="2" height="2"/><rect class="fi" x="363" y="219" width="2" height="2"/><rect class="fi" x="363" y="227" width="2" height="2"/><rect class="fi" x="363" y="235" width="2" height="2"/><rect class="fi" x="363" y="243" width="2" height="2"/><rect class="fi" x="363" y="251" width="2" height="2"/><rect class="fi" x="363" y="259" width="2" height="2"/><rect class="fi" x="363" y="267" width="2" height="2"/><rect class="fi" x="363" y="275" width="2" height="2"/><rect class="fi" x="363" y="283" width="2" height="2"/><rect class="fi" x="363" y="291" width="2" height="2"/><rect class="fi" x="363" y="299" width="2" height="2"/><rect class="fi" x="141" y="201" width="2" height="2"/><rect class="fi" x="141" y="209" width="2" height="2"/><rect class="fi" x="141" y="217" width="2" height="2"/><rect class="fi" x="149" y="201" width="2" height="2"/><rect class="fi" x="149" y="209" width="2" height="2"/><rect class="fi" x="149" y="217" width="2" height="2"/><rect class="fi" x="157" y="201" width="2" height="2"/><rect class="fi" x="157" y="209" width="2" height="2"/><rect class="fi" x="157" y="217" width="2" height="2"/><rect class="fi" x="261" y="201" width="2" height="2"/><rect class="fi" x="261" y="209" width="2" height="2"/><rect class="fi" x="261" y="217" width="2" height="2"/><rect class="fi" x="269" y="201" width="2" height="2"/><rect class="fi" x="269" y="209" width="2" height="2"/><rect class="fi" x="269" y="217" width="2" height="2"/><rect class="fi" x="277" y="201" width="2" height="2"/><rect class="fi" x="277" y="209" width="2" height="2"/><rect class="fi" x="277" y="217" width="2" height="2"/><text class="tx" x="60" y="38" text-anchor="start">SCAN · POINT CLOUD</text><text class="tc" x="60" y="328" text-anchor="start">現場丈量 · 既有 CAD／紙本圖</text><line class="ln br" x1="410" y1="180" x2="520" y2="180"/><line class="ln br" x1="520" y1="180" x2="513" y2="167.9"/><line class="ln br" x1="520" y1="180" x2="513" y2="192.1"/><text class="tc f" x="465" y="166" text-anchor="middle">AI 識圖丈量</text><text class="tx b" x="465" y="204" text-anchor="middle">CAD → BIM</text><polygon class="ln" points="560,60 740,60 740,160 860,160 860,300 560,300"/><polygon class="ln" points="566,66 734,66 734,166 854,166 854,294 566,294"/><rect x="560" y="60" width="6" height="240" fill="url(#h60)"/><rect class="ln" x="642" y="202" width="16" height="16"/><rect class="ln fb" x="762" y="202" width="16" height="16"/><rect class="ln fx" x="680" y="294" width="40" height="6"/><line class="ln" x1="680" y1="294" x2="699.6" y2="260"/><line class="ln ln2" x1="734" y1="206" x2="854" y2="206"/><line class="ln ln2" x1="566" y1="180" x2="642" y2="180"/><line class="ln ln2" x1="560" y1="42" x2="740" y2="42"/><line class="ln" x1="557.7" y1="46" x2="562.3" y2="38"/><line class="ln" x1="737.7" y1="46" x2="742.3" y2="38"/><line class="ln ln3" x1="560" y1="36" x2="560" y2="60"/><line class="ln ln3" x1="740" y1="36" x2="740" y2="60"/><line class="ln ln2" x1="878" y1="160" x2="878" y2="300"/><line class="ln" x1="875.7" y1="164" x2="880.3" y2="156"/><line class="ln" x1="875.7" y1="304" x2="880.3" y2="296"/><text class="tx" x="560" y="30" text-anchor="start">PLAN · BIM BASE</text><text class="tc" x="560" y="328" text-anchor="start">現況模型 · 後續六段共用基準</text></svg>