<svg viewBox="0 0 960 370" role="img" aria-labelledby="fig04" xmlns="http://www.w3.org/2000/svg"><title id="fig04">技術驗證圖解：定案設計依序通過尺度、材料、法規、預算與施工可行性五道檢核，再進入 BIM 協調；外部設計意圖自此階段接手</title><line class="ln" x1="60" y1="180" x2="900" y2="180"/><rect class="ln fx" x="50" y="170" width="20" height="20"/><text class="tx" x="50" y="156" text-anchor="start">03 INTENT</text><rect class="ln fb" x="890" y="170" width="20" height="20"/><text class="tx b" x="910" y="156" text-anchor="end">05 BIM</text><rect class="ln fx" x="212" y="130" width="16" height="100"/><line class="ln" x1="212" y1="130" x2="228" y2="130"/><text class="tx" x="220" y="116" text-anchor="middle">SCALE</text><text class="tc f" x="220" y="256" text-anchor="middle">尺度</text><line class="ln br" x1="240" y1="163" x2="248" y2="149"/><rect class="ln fx" x="352" y="130" width="16" height="100"/><line class="ln" x1="352" y1="130" x2="368" y2="130"/><text class="tx" x="360" y="116" text-anchor="middle">MATERIAL</text><text class="tc f" x="360" y="256" text-anchor="middle">材料</text><line class="ln br" x1="380" y1="163" x2="388" y2="149"/><rect class="ln fx" x="492" y="130" width="16" height="100"/><line class="ln" x1="492" y1="130" x2="508" y2="130"/><text class="tx" x="500" y="116" text-anchor="middle">CODE</text><text class="tc f" x="500" y="256" text-anchor="middle">法規</text><line class="ln br" x1="520" y1="163" x2="528" y2="149"/><rect class="ln fx" x="632" y="130" width="16" height="100"/><line class="ln" x1="632" y1="130" x2="648" y2="130"/><text class="tx" x="640" y="116" text-anchor="middle">BUDGET</text><text class="tc f" x="640" y="256" text-anchor="middle">預算</text><line class="ln br" x1="660" y1="163" x2="668" y2="149"/><rect class="ln fx" x="772" y="130" width="16" height="100"/><line class="ln" x1="772" y1="130" x2="788" y2="130"/><text class="tx" x="780" y="116" text-anchor="middle">BUILDABILITY</text><text class="tc f" x="780" y="256" text-anchor="middle">施工可行性</text><line class="ln br" x1="800" y1="163" x2="808" y2="149"/><line class="ln br ds" x1="60" y1="330" x2="109.4" y2="330"/><line class="ln br ds" x1="109.4" y1="330" x2="196" y2="180"/><rect class="ln fb" x="192" y="176" width="8" height="8"/><text class="tx b" x="60" y="320" text-anchor="start">EXTERNAL DESIGN INTENT · 自此接手</text><text class="tc" x="60" y="352" text-anchor="start">設計意圖來自外部團隊時，惠強自技術驗證接手 · Kimpton 2022</text><text class="tx" x="60" y="40" text-anchor="start">5 CHECKS BEFORE BIM · 五項確認</text></svg>